<svg width="16" height="16" viewBox="0 0 16 16" fill="none" xmlns="http://www.w3.org/2000/svg">
<path fill-rule="evenodd" clip-rule="evenodd" d="M3.33325 3.33325C2.22869 3.33325 1.33325 4.22869 1.33325 5.33325V10.6666C1.33325 11.7712 2.22869 12.6666 3.33325 12.6666H8.66658C9.77118 12.6666 10.6666 11.7712 10.6666 10.6666V10.412L12.737 11.4471C13.6235 11.8904 14.6666 11.2458 14.6666 10.2546V5.74529C14.6666 4.75412 13.6235 4.10945 12.737 4.55272L10.6666 5.58791V5.33325C10.6666 4.22869 9.77118 3.33325 8.66658 3.33325H3.33325ZM5.99992 5.33325C6.3681 5.33325 6.66658 5.63173 6.66658 5.99992V7.33325H7.99992C8.36812 7.33325 8.66658 7.63172 8.66658 7.99992C8.66658 8.36812 8.36812 8.66658 7.99992 8.66658H6.66658V9.99992C6.66658 10.3681 6.3681 10.6666 5.99992 10.6666C5.63172 10.6666 5.33325 10.3681 5.33325 9.99992V8.66658H3.99992C3.63173 8.66658 3.33325 8.36812 3.33325 7.99992C3.33325 7.63172 3.63173 7.33325 3.99992 7.33325H5.33325V5.99992C5.33325 5.63173 5.63173 5.33325 5.99992 5.33325Z" fill="#1A99FF"/>
</svg>
