<svg width="24" height="24" viewBox="0 0 24 24" fill="none" xmlns="http://www.w3.org/2000/svg">
<path fill-rule="evenodd" clip-rule="evenodd" d="M8.75 4.75C8.75 3.7835 9.5335 3 10.5 3H13.5C14.4665 3 15.25 3.7835 15.25 4.75V12H18.25C19.2165 12 20 12.7835 20 13.75V19.25C20 20.2165 19.2165 21 18.25 21H5.75C4.7835 21 4 20.2165 4 19.25V9.75C4 8.7835 4.7835 8 5.75 8H8.75V4.75ZM8.75 9.5H5.75C5.61193 9.5 5.5 9.61193 5.5 9.75V19.25C5.5 19.3881 5.61193 19.5 5.75 19.5H8.75V9.5ZM10.25 19.5H13.75V4.75C13.75 4.61193 13.6381 4.5 13.5 4.5H10.5C10.3619 4.5 10.25 4.61193 10.25 4.75V19.5ZM15.25 19.5H18.25C18.3881 19.5 18.5 19.3881 18.5 19.25V13.75C18.5 13.6119 18.3881 13.5 18.25 13.5H15.25V19.5Z" fill="#4A545E"/>
</svg>
