<svg width="24" height="24" viewBox="0 0 24 24" fill="none" xmlns="http://www.w3.org/2000/svg">
<path fill-rule="evenodd" clip-rule="evenodd" d="M6.91957 3H7.08044C7.61459 2.99999 8.06044 2.99998 8.42467 3.02974C8.80456 3.06078 9.16121 3.12789 9.49847 3.29973C10.0159 3.56338 10.4366 3.98408 10.7003 4.50153C10.8721 4.83879 10.9392 5.19545 10.9703 5.57533C11 5.93957 11 6.38542 11 6.91957V7.08043C11 7.61459 11 8.06044 10.9703 8.42467C10.9392 8.80456 10.8721 9.16121 10.7003 9.49847C10.4366 10.0159 10.0159 10.4366 9.49847 10.7003C9.16121 10.8721 8.80456 10.9392 8.42467 10.9703C8.06044 11 7.61459 11 7.08043 11H6.91957C6.38542 11 5.93957 11 5.57533 10.9703C5.19545 10.9392 4.83879 10.8721 4.50153 10.7003C3.98408 10.4366 3.56338 10.0159 3.29973 9.49847C3.12789 9.16121 3.06078 8.80456 3.02974 8.42467C2.99998 8.06044 2.99999 7.61459 3 7.08044V6.91957C2.99999 6.38541 2.99998 5.93956 3.02974 5.57533C3.06078 5.19545 3.12789 4.83879 3.29973 4.50153C3.56338 3.98408 3.98408 3.56338 4.50153 3.29973C4.83879 3.12789 5.19545 3.06078 5.57533 3.02974C5.93956 2.99998 6.38541 2.99999 6.91957 3ZM5.69748 4.52476C5.41036 4.54822 5.27307 4.5901 5.18251 4.63624C4.94731 4.75608 4.75608 4.94731 4.63624 5.18251C4.5901 5.27307 4.54822 5.41036 4.52476 5.69748C4.50058 5.99336 4.5 6.37757 4.5 6.95V7.05C4.5 7.62243 4.50058 8.00664 4.52476 8.30252C4.54822 8.58965 4.5901 8.72693 4.63624 8.81749C4.75608 9.05269 4.94731 9.24392 5.18251 9.36376C5.27307 9.4099 5.41036 9.45178 5.69748 9.47524C5.99336 9.49942 6.37757 9.5 6.95 9.5H7.05C7.62243 9.5 8.00664 9.49942 8.30252 9.47524C8.58965 9.45178 8.72693 9.4099 8.81749 9.36376C9.05269 9.24392 9.24392 9.05269 9.36376 8.81749C9.4099 8.72693 9.45178 8.58965 9.47524 8.30252C9.49942 8.00664 9.5 7.62243 9.5 7.05V6.95C9.5 6.37757 9.49942 5.99336 9.47524 5.69748C9.45178 5.41036 9.4099 5.27307 9.36376 5.18251C9.24392 4.94731 9.05269 4.75608 8.81749 4.63624C8.72693 4.5901 8.58965 4.54822 8.30252 4.52476C8.00664 4.50058 7.62243 4.5 7.05 4.5H6.95C6.37757 4.5 5.99336 4.50058 5.69748 4.52476ZM16.9196 3H17.0804C17.6146 2.99999 18.0604 2.99998 18.4247 3.02974C18.8046 3.06078 19.1612 3.12789 19.4985 3.29973C20.0159 3.56338 20.4366 3.98408 20.7003 4.50153C20.8721 4.83879 20.9392 5.19545 20.9703 5.57533C21 5.93956 21 6.3854 21 6.91955V7.08045C21 7.6146 21 8.06044 20.9703 8.42467C20.9392 8.80456 20.8721 9.16121 20.7003 9.49847C20.4366 10.0159 20.0159 10.4366 19.4985 10.7003C19.1612 10.8721 18.8046 10.9392 18.4247 10.9703C18.0604 11 17.6146 11 17.0804 11H16.9196C16.3854 11 15.9396 11 15.5753 10.9703C15.1954 10.9392 14.8388 10.8721 14.5015 10.7003C13.9841 10.4366 13.5634 10.0159 13.2997 9.49847C13.1279 9.16121 13.0608 8.80456 13.0297 8.42467C13 8.06044 13 7.6146 13 7.08045V6.91955C13 6.3854 13 5.93956 13.0297 5.57533C13.0608 5.19545 13.1279 4.83879 13.2997 4.50153C13.5634 3.98408 13.9841 3.56338 14.5015 3.29973C14.8388 3.12789 15.1954 3.06078 15.5753 3.02974C15.9396 2.99998 16.3854 2.99999 16.9196 3ZM15.6975 4.52476C15.4104 4.54822 15.2731 4.5901 15.1825 4.63624C14.9473 4.75608 14.7561 4.94731 14.6362 5.18251C14.5901 5.27307 14.5482 5.41036 14.5248 5.69748C14.5006 5.99336 14.5 6.37757 14.5 6.95V7.05C14.5 7.62243 14.5006 8.00664 14.5248 8.30252C14.5482 8.58965 14.5901 8.72693 14.6362 8.81749C14.7561 9.05269 14.9473 9.24392 15.1825 9.36376C15.2731 9.4099 15.4104 9.45178 15.6975 9.47524C15.9934 9.49942 16.3776 9.5 16.95 9.5H17.05C17.6224 9.5 18.0066 9.49942 18.3025 9.47524C18.5896 9.45178 18.7269 9.4099 18.8175 9.36376C19.0527 9.24392 19.2439 9.05269 19.3638 8.81749C19.4099 8.72693 19.4518 8.58965 19.4752 8.30252C19.4994 8.00664 19.5 7.62243 19.5 7.05V6.95C19.5 6.37757 19.4994 5.99336 19.4752 5.69748C19.4518 5.41036 19.4099 5.27307 19.3638 5.18251C19.2439 4.94731 19.0527 4.75608 18.8175 4.63624C18.7269 4.5901 18.5896 4.54822 18.3025 4.52476C18.0066 4.50058 17.6224 4.5 17.05 4.5H16.95C16.3776 4.5 15.9934 4.50058 15.6975 4.52476ZM6.91955 13H7.08045C7.6146 13 8.06044 13 8.42467 13.0297C8.80456 13.0608 9.16121 13.1279 9.49847 13.2997C10.0159 13.5634 10.4366 13.9841 10.7003 14.5015C10.8721 14.8388 10.9392 15.1954 10.9703 15.5753C11 15.9396 11 16.3854 11 16.9196V17.0804C11 17.6146 11 18.0604 10.9703 18.4247C10.9392 18.8046 10.8721 19.1612 10.7003 19.4985C10.4366 20.0159 10.0159 20.4366 9.49847 20.7003C9.16121 20.8721 8.80456 20.9392 8.42467 20.9703C8.06044 21 7.6146 21 7.08045 21H6.91955C6.3854 21 5.93956 21 5.57533 20.9703C5.19545 20.9392 4.83879 20.8721 4.50153 20.7003C3.98408 20.4366 3.56338 20.0159 3.29973 19.4985C3.12789 19.1612 3.06078 18.8046 3.02974 18.4247C2.99998 18.0604 2.99999 17.6146 3 17.0804V16.9196C2.99999 16.3854 2.99998 15.9396 3.02974 15.5753C3.06078 15.1954 3.12789 14.8388 3.29973 14.5015C3.56338 13.9841 3.98408 13.5634 4.50153 13.2997C4.83879 13.1279 5.19545 13.0608 5.57533 13.0297C5.93956 13 6.3854 13 6.91955 13ZM5.69748 14.5248C5.41036 14.5482 5.27307 14.5901 5.18251 14.6362C4.94731 14.7561 4.75608 14.9473 4.63624 15.1825C4.5901 15.2731 4.54822 15.4104 4.52476 15.6975C4.50058 15.9934 4.5 16.3776 4.5 16.95V17.05C4.5 17.6224 4.50058 18.0066 4.52476 18.3025C4.54822 18.5896 4.5901 18.7269 4.63624 18.8175C4.75608 19.0527 4.94731 19.2439 5.18251 19.3638C5.27307 19.4099 5.41036 19.4518 5.69748 19.4752C5.99336 19.4994 6.37757 19.5 6.95 19.5H7.05C7.62243 19.5 8.00664 19.4994 8.30252 19.4752C8.58965 19.4518 8.72693 19.4099 8.81749 19.3638C9.05269 19.2439 9.24392 19.0527 9.36376 18.8175C9.4099 18.7269 9.45178 18.5896 9.47524 18.3025C9.49942 18.0066 9.5 17.6224 9.5 17.05V16.95C9.5 16.3776 9.49942 15.9934 9.47524 15.6975C9.45178 15.4104 9.4099 15.2731 9.36376 15.1825C9.24392 14.9473 9.05269 14.7561 8.81749 14.6362C8.72693 14.5901 8.58965 14.5482 8.30252 14.5248C8.00664 14.5006 7.62243 14.5 7.05 14.5H6.95C6.37757 14.5 5.99336 14.5006 5.69748 14.5248ZM16.9195 13H17.0805C17.6146 13 18.0604 13 18.4247 13.0297C18.8046 13.0608 19.1612 13.1279 19.4985 13.2997C20.0159 13.5634 20.4366 13.9841 20.7003 14.5015C20.8721 14.8388 20.9392 15.1954 20.9703 15.5753C21 15.9396 21 16.3854 21 16.9195V17.0805C21 17.6146 21 18.0604 20.9703 18.4247C20.9392 18.8046 20.8721 19.1612 20.7003 19.4985C20.4366 20.0159 20.0159 20.4366 19.4985 20.7003C19.1612 20.8721 18.8046 20.9392 18.4247 20.9703C18.0604 21 17.6146 21 17.0805 21H16.9195C16.3854 21 15.9396 21 15.5753 20.9703C15.1954 20.9392 14.8388 20.8721 14.5015 20.7003C13.9841 20.4366 13.5634 20.0159 13.2997 19.4985C13.1279 19.1612 13.0608 18.8046 13.0297 18.4247C13 18.0604 13 17.6146 13 17.0805V16.9195C13 16.3854 13 15.9396 13.0297 15.5753C13.0608 15.1954 13.1279 14.8388 13.2997 14.5015C13.5634 13.9841 13.9841 13.5634 14.5015 13.2997C14.8388 13.1279 15.1954 13.0608 15.5753 13.0297C15.9396 13 16.3854 13 16.9195 13ZM15.6975 14.5248C15.4104 14.5482 15.2731 14.5901 15.1825 14.6362C14.9473 14.7561 14.7561 14.9473 14.6362 15.1825C14.5901 15.2731 14.5482 15.4104 14.5248 15.6975C14.5006 15.9934 14.5 16.3776 14.5 16.95V17.05C14.5 17.6224 14.5006 18.0066 14.5248 18.3025C14.5482 18.5896 14.5901 18.7269 14.6362 18.8175C14.7561 19.0527 14.9473 19.2439 15.1825 19.3638C15.2731 19.4099 15.4104 19.4518 15.6975 19.4752C15.9934 19.4994 16.3776 19.5 16.95 19.5H17.05C17.6224 19.5 18.0066 19.4994 18.3025 19.4752C18.5896 19.4518 18.7269 19.4099 18.8175 19.3638C19.0527 19.2439 19.2439 19.0527 19.3638 18.8175C19.4099 18.7269 19.4518 18.5896 19.4752 18.3025C19.4994 18.0066 19.5 17.6224 19.5 17.05V16.95C19.5 16.3776 19.4994 15.9934 19.4752 15.6975C19.4518 15.4104 19.4099 15.2731 19.3638 15.1825C19.2439 14.9473 19.0527 14.7561 18.8175 14.6362C18.7269 14.5901 18.5896 14.5482 18.3025 14.5248C18.0066 14.5006 17.6224 14.5 17.05 14.5H16.95C16.3776 14.5 15.9934 14.5006 15.6975 14.5248Z" fill="#4A545E"/>
</svg>
