<svg width="16" height="18" viewBox="0 0 16 18" fill="none" xmlns="http://www.w3.org/2000/svg">
<path fill-rule="evenodd" clip-rule="evenodd" d="M4.75 1.75C4.75 0.783501 5.5335 0 6.5 0H9.5C10.4665 0 11.25 0.783502 11.25 1.75V9H14.25C15.2165 9 16 9.7835 16 10.75V16.25C16 17.2165 15.2165 18 14.25 18H1.75C0.783501 18 0 17.2165 0 16.25V6.75C0 5.7835 0.783502 5 1.75 5H4.75V1.75ZM4.75 6.5H1.75C1.61193 6.5 1.5 6.61193 1.5 6.75V16.25C1.5 16.3881 1.61193 16.5 1.75 16.5H4.75V6.5ZM6.25 16.5H9.75V1.75C9.75 1.61193 9.63807 1.5 9.5 1.5H6.5C6.36193 1.5 6.25 1.61193 6.25 1.75V16.5ZM11.25 16.5H14.25C14.3881 16.5 14.5 16.3881 14.5 16.25V10.75C14.5 10.6119 14.3881 10.5 14.25 10.5H11.25V16.5Z" fill="#4A545E"/>
</svg>
