<svg width="19" height="19" viewBox="0 0 19 19" fill="none" xmlns="http://www.w3.org/2000/svg">
<path fill-rule="evenodd" clip-rule="evenodd" d="M5.75 0C6.16421 0 6.5 0.335786 6.5 0.75V2H11.5V0.75C11.5 0.335786 11.8358 0 12.25 0C12.6642 0 13 0.335786 13 0.75V2H15.25C16.7688 2 18 3.23122 18 4.75V7.75C18 8.16421 17.6642 8.5 17.25 8.5H1.5V15.25C1.5 15.9404 2.05964 16.5 2.75 16.5H7.75C8.16421 16.5 8.5 16.8358 8.5 17.25C8.5 17.6642 8.16421 18 7.75 18H2.75C1.23122 18 0 16.7688 0 15.25V4.75C0 3.23122 1.23122 2 2.75 2H5V0.75C5 0.335786 5.33579 0 5.75 0ZM5 3.5H2.75C2.05964 3.5 1.5 4.05964 1.5 4.75V7H16.5V4.75C16.5 4.05964 15.9404 3.5 15.25 3.5H13V4.25C13 4.66421 12.6642 5 12.25 5C11.8358 5 11.5 4.66421 11.5 4.25V3.5H6.5V4.25C6.5 4.66421 6.16421 5 5.75 5C5.33579 5 5 4.66421 5 4.25V3.5ZM17.286 12.714C17.0008 12.4287 16.5382 12.4287 16.253 12.714L12.5 16.4669V17.5H13.5331L17.286 13.747C17.5713 13.4618 17.5713 12.9992 17.286 12.714ZM15.1923 11.6533C16.0634 10.7822 17.4756 10.7822 18.3467 11.6533C19.2178 12.5244 19.2178 13.9366 18.3467 14.8077L14.3741 18.7803C14.2334 18.921 14.0427 19 13.8437 19H11.75C11.3358 19 11 18.6642 11 18.25V16.1563C11 15.9573 11.079 15.7666 11.2197 15.6259L15.1923 11.6533Z" fill="#4A545E"/>
</svg>
