<svg width="24" height="24" viewBox="0 0 24 24" fill="none" xmlns="http://www.w3.org/2000/svg">
<path fill-rule="evenodd" clip-rule="evenodd" d="M6.91957 5H12.0804C12.6146 4.99999 13.0604 4.99998 13.4247 5.02974C13.8046 5.06078 14.1612 5.12789 14.4985 5.29973C15.0159 5.56338 15.4366 5.98408 15.7003 6.50153C15.8721 6.83879 15.9392 7.19545 15.9703 7.57533C15.9903 7.82105 15.9969 8.10391 15.999 8.42597L17.4703 7.54321C17.8417 7.3203 18.164 7.1269 18.4344 6.99667C18.7075 6.8651 19.0409 6.73911 19.4124 6.77374C19.9103 6.82016 20.3646 7.07736 20.6606 7.48044C20.8814 7.78119 20.9449 8.13191 20.9726 8.43379C21 8.73264 21 9.10852 21 9.54177V14.4582C21 14.8915 21 15.2674 20.9726 15.5662C20.9449 15.8681 20.8814 16.2188 20.6606 16.5196C20.3646 16.9226 19.9103 17.1798 19.4124 17.2263C19.0409 17.2609 18.7075 17.1349 18.4344 17.0033C18.164 16.8731 17.8417 16.6797 17.4702 16.4568L15.999 15.574C15.9969 15.8961 15.9903 16.179 15.9703 16.4247C15.9392 16.8046 15.8721 17.1612 15.7003 17.4985C15.4366 18.0159 15.0159 18.4366 14.4985 18.7003C14.1612 18.8721 13.8046 18.9392 13.4247 18.9703C13.0604 19 12.6146 19 12.0805 19H6.91955C6.3854 19 5.93956 19 5.57533 18.9703C5.19545 18.9392 4.83879 18.8721 4.50153 18.7003C3.98408 18.4366 3.56338 18.0159 3.29973 17.4985C3.12789 17.1612 3.06078 16.8046 3.02974 16.4247C2.99998 16.0604 2.99999 15.6146 3 15.0804V8.91957C2.99999 8.38541 2.99998 7.93956 3.02974 7.57533C3.06078 7.19545 3.12789 6.83879 3.29973 6.50153C3.56338 5.98408 3.98408 5.56338 4.50153 5.29973C4.83879 5.12789 5.19545 5.06078 5.57533 5.02974C5.93956 4.99998 6.38541 4.99999 6.91957 5ZM16 13.8254L18.2127 15.153C18.622 15.3985 18.8847 15.5553 19.0854 15.652C19.2105 15.7122 19.2697 15.7275 19.2866 15.7311C19.348 15.722 19.4039 15.6904 19.4433 15.6424C19.4488 15.6261 19.4662 15.5675 19.4789 15.4292C19.4992 15.2073 19.5 14.9014 19.5 14.4241V9.57591C19.5 9.09861 19.4992 8.79269 19.4789 8.57084C19.4662 8.43252 19.4488 8.37393 19.4433 8.3576C19.4039 8.30959 19.348 8.27796 19.2866 8.26888C19.2697 8.27254 19.2105 8.28776 19.0854 8.34803C18.8847 8.44472 18.622 8.60147 18.2127 8.84704L16 10.1746V13.8254ZM5.69748 6.52476C5.41036 6.54822 5.27307 6.5901 5.18251 6.63624C4.94731 6.75608 4.75608 6.94731 4.63624 7.18251C4.5901 7.27307 4.54822 7.41036 4.52476 7.69748C4.50058 7.99336 4.5 8.37757 4.5 8.95V15.05C4.5 15.6224 4.50058 16.0066 4.52476 16.3025C4.54822 16.5896 4.5901 16.7269 4.63624 16.8175C4.75608 17.0527 4.94731 17.2439 5.18251 17.3638C5.27307 17.4099 5.41036 17.4518 5.69748 17.4752C5.99336 17.4994 6.37757 17.5 6.95 17.5H12.05C12.6224 17.5 13.0066 17.4994 13.3025 17.4752C13.5896 17.4518 13.7269 17.4099 13.8175 17.3638C14.0527 17.2439 14.2439 17.0527 14.3638 16.8175C14.4099 16.7269 14.4518 16.5896 14.4752 16.3025C14.4994 16.0066 14.5 15.6224 14.5 15.05V8.95C14.5 8.37757 14.4994 7.99336 14.4752 7.69748C14.4518 7.41036 14.4099 7.27307 14.3638 7.18251C14.2439 6.94731 14.0527 6.75608 13.8175 6.63624C13.7269 6.5901 13.5896 6.54822 13.3025 6.52476C13.0066 6.50058 12.6224 6.5 12.05 6.5H6.95C6.37757 6.5 5.99336 6.50058 5.69748 6.52476Z" fill="#4A545E"/>
</svg>
