<svg width="21" height="20" viewBox="0 0 21 20" fill="none" xmlns="http://www.w3.org/2000/svg">
<g opacity="0.34" clip-path="url(#clip0_16_20140)">
<path d="M15.9766 20C15.6925 19.8885 15.4639 19.7207 15.3891 19.4037C15.2725 18.91 15.6263 18.4467 16.1375 18.4401C16.7492 18.4318 17.3613 18.4389 17.973 18.4369C18.2928 18.4361 18.4368 18.2914 18.4368 17.9694C18.4376 15.639 18.4372 13.309 18.4372 10.9786V10.8209C18.3484 10.8209 18.2728 10.8209 18.1973 10.8209C15.9907 10.8209 13.7837 10.8221 11.5771 10.8201C11.0252 10.8197 10.6542 10.3604 10.781 9.84548C10.8667 9.49764 11.1751 9.26171 11.561 9.25975C12.2248 9.25662 12.889 9.25858 13.5528 9.25858C15.1022 9.25858 16.6513 9.25858 18.2008 9.25858H18.4376V9.03869C18.4376 6.7216 18.4376 4.40413 18.4376 2.08705C18.4376 1.68639 18.3143 1.56392 17.9116 1.56392C15.0866 1.56392 12.2612 1.56392 9.43622 1.56392H9.22056C9.22056 1.64766 9.22056 1.71691 9.22056 1.78616C9.22056 2.4568 9.22174 3.12704 9.22017 3.79767C9.219 4.28597 8.88515 4.64202 8.43623 4.6385C7.9881 4.63498 7.65973 4.27814 7.65856 3.78906C7.65699 3.12508 7.65817 2.4611 7.65817 1.79712C7.65817 1.72708 7.65817 1.65665 7.65817 1.57371C7.57989 1.57018 7.51688 1.56432 7.45387 1.56432C5.65703 1.56392 3.86059 1.56392 2.06376 1.56432C1.70721 1.56432 1.56318 1.69774 1.56318 2.03384C1.5624 4.37713 1.56279 6.72043 1.56279 9.06373V9.20811H7.65778C7.65778 9.13181 7.65778 9.06216 7.65778 8.99252C7.65778 8.32189 7.65621 7.65165 7.65856 6.98101C7.66012 6.49858 8.00415 6.13783 8.44954 6.14527C8.89493 6.1527 9.21978 6.50054 9.22017 6.97984C9.22135 8.99134 9.22135 11.0025 9.22017 13.014C9.22017 13.5034 8.8875 13.8579 8.4378 13.8564C7.99045 13.8548 7.65973 13.4972 7.65856 13.0085C7.65699 12.3445 7.65817 11.6805 7.65817 11.0165C7.65817 10.9461 7.65817 10.8757 7.65817 10.7939H1.5624V11.0091C1.5624 13.307 1.5624 15.6045 1.5624 17.9024C1.5624 18.3168 1.68294 18.4377 2.09585 18.4381C3.87311 18.4381 5.64999 18.4381 7.42725 18.4381H7.65778C7.65778 18.3379 7.65778 18.2554 7.65778 18.1728C7.65778 17.5155 7.65621 16.8578 7.65856 16.2004C7.66012 15.7176 8.00297 15.3569 8.44837 15.3635C8.89376 15.3702 9.21861 15.7184 9.22017 16.1969C9.22213 16.8675 9.22056 17.5378 9.22056 18.2084C9.22056 18.2785 9.22056 18.3481 9.22056 18.4381C9.30862 18.4381 9.37868 18.4381 9.44835 18.4381C10.6526 18.4381 11.8569 18.4361 13.0612 18.4393C13.4592 18.4404 13.7649 18.6975 13.8373 19.0755C13.9089 19.4503 13.7113 19.8013 13.3453 19.9519C13.3105 19.9664 13.2768 19.984 13.2428 20.0004H1.67981C1.67003 19.9922 1.66142 19.9793 1.65046 19.9766C0.531888 19.6937 0 19.0136 0 17.8637C0 12.6055 0 7.34724 0 2.089C0 0.823647 0.822684 0.00159518 2.08802 0.00159518C5.58306 0.00159518 9.07771 0.00159518 12.5727 0.00159518C14.3821 0.00159518 16.1915 -0.00270875 18.0004 0.00355152C18.8497 0.00629039 19.463 0.4046 19.8301 1.16874C19.9076 1.32956 19.9444 1.50993 19.9996 1.6813V18.3207C19.9859 18.3626 19.9691 18.4033 19.9589 18.4459C19.8016 19.1036 19.4188 19.5759 18.7969 19.8455C18.6443 19.9116 18.4795 19.9496 18.3202 20.0004H15.9766V20Z" fill="#4A545E"/>
</g>
<defs>
<clipPath id="clip0_16_20140">
<rect width="20" height="20" fill="white" transform="translate(0.434082)"/>
</clipPath>
</defs>
</svg>
