<svg width="20" height="20" viewBox="0 0 20 20" fill="none" xmlns="http://www.w3.org/2000/svg">
<path d="M17.7082 10.6251C18.0582 10.6251 18.3332 10.3417 18.3332 10.0001C18.3332 9.65008 18.0582 9.37508 17.7082 9.37508H16.6665V7.54175H17.7082C18.0582 7.54175 18.3332 7.26675 18.3332 6.91675C18.3332 6.57508 18.0582 6.29175 17.7082 6.29175H16.4748C16.0748 4.96675 15.0332 3.92508 13.7082 3.52508V2.29175C13.7082 1.95008 13.4248 1.66675 13.0832 1.66675C12.7415 1.66675 12.4582 1.95008 12.4582 2.29175V3.33341H10.6248V2.29175C10.6248 1.95008 10.3415 1.66675 9.99984 1.66675C9.65817 1.66675 9.37484 1.95008 9.37484 2.29175V3.33341H7.54984V2.29175C7.54984 1.95008 7.2665 1.66675 6.92484 1.66675C6.57484 1.66675 6.29984 1.95008 6.29984 2.29175V3.52508C4.9665 3.92508 3.92484 4.96675 3.52484 6.29175H2.2915C1.94984 6.29175 1.6665 6.57508 1.6665 6.91675C1.6665 7.26675 1.94984 7.54175 2.2915 7.54175H3.33317V9.37508H2.2915C1.94984 9.37508 1.6665 9.65008 1.6665 10.0001C1.6665 10.3417 1.94984 10.6251 2.2915 10.6251H3.33317V12.4584H2.2915C1.94984 12.4584 1.6665 12.7334 1.6665 13.0834C1.6665 13.4251 1.94984 13.7084 2.2915 13.7084H3.52484C3.9165 15.0334 4.9665 16.0751 6.29984 16.4751V17.7084C6.29984 18.0501 6.57484 18.3334 6.92484 18.3334C7.2665 18.3334 7.54984 18.0501 7.54984 17.7084V16.6667H9.38317V17.7084C9.38317 18.0501 9.65817 18.3334 10.0082 18.3334C10.3498 18.3334 10.6332 18.0501 10.6332 17.7084V16.6667H12.4582V17.7084C12.4582 18.0501 12.7415 18.3334 13.0832 18.3334C13.4248 18.3334 13.7082 18.0501 13.7082 17.7084V16.4751C15.0332 16.0751 16.0748 15.0334 16.4748 13.7084H17.7082C18.0582 13.7084 18.3332 13.4251 18.3332 13.0834C18.3332 12.7334 18.0582 12.4584 17.7082 12.4584H16.6665V10.6251H17.7082ZM14.3832 11.8834C14.3832 13.2584 13.2582 14.3834 11.8832 14.3834H8.1165C6.7415 14.3834 5.6165 13.2584 5.6165 11.8834V8.11675C5.6165 6.74175 6.7415 5.61675 8.1165 5.61675H11.8832C13.2582 5.61675 14.3832 6.74175 14.3832 8.11675V11.8834Z" fill="#D2D4DE"/>
<path d="M8.35016 13.5416H11.6585C12.7002 13.5416 13.5502 12.7 13.5502 11.65V8.34162C13.5502 7.29995 12.7085 6.44995 11.6585 6.44995H8.35016C7.3085 6.44995 6.4585 7.29162 6.4585 8.34162V11.65C6.4585 12.7 7.30016 13.5416 8.35016 13.5416Z" fill="#D2D4DE"/>
</svg>
