<svg width="16" height="16" viewBox="0 0 16 16" fill="none" xmlns="http://www.w3.org/2000/svg">
<path d="M14.1666 8.49992C14.4466 8.49992 14.6666 8.27325 14.6666 7.99992C14.6666 7.71992 14.4466 7.49992 14.1666 7.49992H13.3333V6.03325H14.1666C14.4466 6.03325 14.6666 5.81325 14.6666 5.53325C14.6666 5.25992 14.4466 5.03325 14.1666 5.03325H13.1799C12.8599 3.97325 12.0266 3.13992 10.9666 2.81992V1.83325C10.9666 1.55992 10.7399 1.33325 10.4666 1.33325C10.1933 1.33325 9.96659 1.55992 9.96659 1.83325V2.66659H8.49992V1.83325C8.49992 1.55992 8.27325 1.33325 7.99992 1.33325C7.72659 1.33325 7.49992 1.55992 7.49992 1.83325V2.66659H6.03992V1.83325C6.03992 1.55992 5.81325 1.33325 5.53992 1.33325C5.25992 1.33325 5.03992 1.55992 5.03992 1.83325V2.81992C3.97325 3.13992 3.13992 3.97325 2.81992 5.03325H1.83325C1.55992 5.03325 1.33325 5.25992 1.33325 5.53325C1.33325 5.81325 1.55992 6.03325 1.83325 6.03325H2.66659V7.49992H1.83325C1.55992 7.49992 1.33325 7.71992 1.33325 7.99992C1.33325 8.27325 1.55992 8.49992 1.83325 8.49992H2.66659V9.96659H1.83325C1.55992 9.96659 1.33325 10.1866 1.33325 10.4666C1.33325 10.7399 1.55992 10.9666 1.83325 10.9666H2.81992C3.13325 12.0266 3.97325 12.8599 5.03992 13.1799V14.1666C5.03992 14.4399 5.25992 14.6666 5.53992 14.6666C5.81325 14.6666 6.03992 14.4399 6.03992 14.1666V13.3333H7.50659V14.1666C7.50659 14.4399 7.72659 14.6666 8.00659 14.6666C8.27992 14.6666 8.50659 14.4399 8.50659 14.1666V13.3333H9.96659V14.1666C9.96659 14.4399 10.1933 14.6666 10.4666 14.6666C10.7399 14.6666 10.9666 14.4399 10.9666 14.1666V13.1799C12.0266 12.8599 12.8599 12.0266 13.1799 10.9666H14.1666C14.4466 10.9666 14.6666 10.7399 14.6666 10.4666C14.6666 10.1866 14.4466 9.96659 14.1666 9.96659H13.3333V8.49992H14.1666ZM11.5066 9.50659C11.5066 10.6066 10.6066 11.5066 9.50659 11.5066H6.49325C5.39325 11.5066 4.49325 10.6066 4.49325 9.50659V6.49325C4.49325 5.39325 5.39325 4.49325 6.49325 4.49325H9.50659C10.6066 4.49325 11.5066 5.39325 11.5066 6.49325V9.50659Z" fill="#1A99FF"/>
<path d="M6.67984 10.8332H9.3265C10.1598 10.8332 10.8398 10.1599 10.8398 9.31991V6.67325C10.8398 5.83991 10.1665 5.15991 9.3265 5.15991H6.67984C5.8465 5.15991 5.1665 5.83325 5.1665 6.67325V9.31991C5.1665 10.1599 5.83984 10.8332 6.67984 10.8332Z" fill="#1A99FF"/>
<path fill-rule="evenodd" clip-rule="evenodd" d="M8 6C8.27614 6 8.5 6.22386 8.5 6.5V7.5H9.5C9.77615 7.5 10 7.72385 10 8C10 8.27615 9.77615 8.5 9.5 8.5H8.5V9.5C8.5 9.77615 8.27614 10 8 10C7.72385 10 7.5 9.77615 7.5 9.5V8.5H6.5C6.22386 8.5 6 8.27615 6 8C6 7.72385 6.22386 7.5 6.5 7.5H7.5V6.5C7.5 6.22386 7.72386 6 8 6Z" fill="#FFF5D7"/>
</svg>
