<svg width="24" height="24" viewBox="0 0 24 24" fill="none" xmlns="http://www.w3.org/2000/svg">
<path fill-rule="evenodd" clip-rule="evenodd" d="M9.75 3C10.1642 3 10.5 3.33579 10.5 3.75V6H13.5V3.75C13.5 3.33579 13.8358 3 14.25 3C14.6642 3 15 3.33579 15 3.75V6H16.25C17.7688 6 19 7.23122 19 8.75V11.25C19 14.8097 16.2444 17.7259 12.75 17.9818V20.25C12.75 20.6642 12.4142 21 12 21C11.5858 21 11.25 20.6642 11.25 20.25V17.9818C7.75556 17.7259 5 14.8097 5 11.25V8.75C5 7.23122 6.23122 6 7.75 6H9V3.75C9 3.33579 9.33579 3 9.75 3ZM7.75 7.5C7.05964 7.5 6.5 8.05964 6.5 8.75V11.25C6.5 14.1495 8.85051 16.5 11.75 16.5H12.25C15.1495 16.5 17.5 14.1495 17.5 11.25V8.75C17.5 8.05964 16.9404 7.5 16.25 7.5H7.75Z" fill="#4A545E"/>
</svg>
