<svg width="20" height="21" viewBox="0 0 20 21" fill="none" xmlns="http://www.w3.org/2000/svg">
<path fill-rule="evenodd" clip-rule="evenodd" d="M1 6.25C1 4.73122 2.23122 3.5 3.75 3.5H16.25C17.7688 3.5 19 4.73122 19 6.25V14.75C19 16.2688 17.7688 17.5 16.25 17.5H3.75C2.23122 17.5 1 16.2688 1 14.75V6.25ZM6.5 16H16.25C16.9404 16 17.5 15.4404 17.5 14.75V6.25C17.5 5.55964 16.9404 5 16.25 5H6.5V16ZM5 5V16H3.75C3.05964 16 2.5 15.4404 2.5 14.75V6.25C2.5 5.55964 3.05964 5 3.75 5H5ZM11.7483 7.68944C12.0579 7.96463 12.0857 8.43869 11.8106 8.74827L10.9201 9.75L14.75 9.75C15.1642 9.75 15.5 10.0858 15.5 10.5C15.5 10.9142 15.1642 11.25 14.75 11.25L10.9201 11.25L11.8106 12.2517C12.0857 12.5613 12.0579 13.0354 11.7483 13.3106C11.4387 13.5857 10.9646 13.5579 10.6894 13.2483L8.68944 10.9983C8.43685 10.7141 8.43685 10.2859 8.68944 10.0017L10.6894 7.75173C10.9646 7.44214 11.4387 7.41425 11.7483 7.68944Z" fill="white"/>
</svg>
