<svg width="120" height="32" viewBox="0 0 120 32" fill="none" xmlns="http://www.w3.org/2000/svg">
<path d="M15.059 29.1764C22.5095 29.1764 28.5492 23.1367 28.5492 15.6862C28.5492 8.23581 22.5095 2.19604 15.059 2.19604C7.60861 2.19604 1.56885 8.23581 1.56885 15.6862C1.56885 23.1367 7.60861 29.1764 15.059 29.1764Z" stroke="#5664D2" stroke-width="3"/>
<path d="M27.6079 14.6608C26.0379 14.1059 24.3484 13.804 22.5883 13.804C14.909 13.804 8.5723 19.5521 7.646 26.9804" stroke="#5664D2" stroke-width="3"/>
<path d="M18.8233 24.4706C20.5559 24.4706 21.9605 23.066 21.9605 21.3333C21.9605 19.6006 20.5559 18.196 18.8233 18.196C17.0906 18.196 15.686 19.6006 15.686 21.3333C15.686 23.066 17.0906 24.4706 18.8233 24.4706Z" fill="#5664D2"/>
<path d="M50.2635 26.1336C48.4715 26.1336 46.8728 25.7427 45.4673 24.9609C44.0706 24.1704 42.9682 23.0591 42.16 21.6273C41.3606 20.1867 40.9609 18.4913 40.9609 16.5412C40.9609 14.5911 41.365 12.9001 42.1732 11.4682C42.9901 10.0276 44.1057 8.91639 45.52 8.13459C46.9431 7.344 48.5594 6.94871 50.3689 6.94871C51.3089 6.94871 52.2049 7.04973 53.0569 7.25176C53.909 7.4538 54.6557 7.71294 55.2969 8.02918L55.0334 10.3482C54.3746 10.032 53.6499 9.76408 52.8593 9.54447C52.0687 9.32486 51.2298 9.21506 50.3426 9.21506C48.8932 9.21506 47.6765 9.54447 46.6927 10.2033C45.7089 10.8533 44.9622 11.7318 44.4527 12.8386C43.952 13.9454 43.7016 15.1796 43.7016 16.5412C43.7016 17.9027 43.9476 19.1369 44.4395 20.2438C44.9402 21.3506 45.6781 22.2334 46.6532 22.8922C47.637 23.5423 48.8492 23.8673 50.2899 23.8673C51.2034 23.8673 52.0467 23.7707 52.8198 23.5774C53.6016 23.3754 54.3394 23.1031 55.0334 22.7605L55.2969 25.0795C54.6381 25.3782 53.8958 25.6285 53.0701 25.8306C52.2444 26.0326 51.3089 26.1336 50.2635 26.1336ZM57.5996 25.7647V12.8518H59.5497L59.8396 14.9864C60.4984 14.1694 61.1265 13.5677 61.7238 13.1812C62.3299 12.7859 62.9756 12.5882 63.6607 12.5882C63.8803 12.5882 64.0824 12.6146 64.2669 12.6673L64.0297 15.2762C63.9155 15.2499 63.7925 15.2323 63.6607 15.2235C63.5378 15.206 63.3972 15.1972 63.2391 15.1972C62.5539 15.1972 61.9214 15.3509 61.3417 15.6584C60.7707 15.957 60.3666 16.2864 60.1294 16.6466V25.7647H57.5996ZM68.762 26.0282C67.9627 26.0282 67.2643 25.8657 66.667 25.5407C66.0695 25.2157 65.6039 24.7721 65.2701 24.2099C64.9451 23.6477 64.7826 23.0064 64.7826 22.2861C64.7826 21.557 64.9407 20.9333 65.2569 20.4151C65.5819 19.888 66.0124 19.4532 66.5484 19.1106C67.093 18.7592 67.6991 18.4825 68.3667 18.2805C69.0344 18.0696 69.7239 17.9203 70.4354 17.8325C71.1558 17.7358 71.8453 17.6831 72.5042 17.6744C72.5042 16.4445 72.2626 15.6408 71.7794 15.2631C71.2963 14.8853 70.598 14.6965 69.6844 14.6965C69.2013 14.6965 68.683 14.7711 68.1296 14.9205C67.5849 15.0698 66.97 15.3816 66.2847 15.856L65.9421 13.9322C66.4605 13.5369 67.1062 13.2163 67.8792 12.9704C68.6522 12.7156 69.4648 12.5882 70.3169 12.5882C71.4061 12.5882 72.2845 12.7815 72.9522 13.168C73.6198 13.5457 74.1073 14.187 74.4147 15.0918C74.7222 15.9965 74.8759 17.2264 74.8759 18.7812V21.4165C74.8759 22.0314 74.9023 22.5409 74.955 22.9449C75.0165 23.3402 75.1482 23.6389 75.3503 23.8409C75.5611 24.0342 75.8949 24.1308 76.3517 24.1308H76.5889L76.2199 26.0282H76.0354C75.2712 26.0282 74.6783 25.9536 74.2566 25.8042C73.8438 25.6549 73.5275 25.4397 73.3079 25.1586C73.0883 24.8775 72.8907 24.5349 72.715 24.1308C72.2318 24.693 71.6609 25.1498 71.002 25.5012C70.3432 25.8526 69.5965 26.0282 68.762 26.0282ZM69.21 24.1308C69.8425 24.1308 70.453 23.9727 71.0416 23.6565C71.6389 23.3402 72.1264 22.9186 72.5042 22.3915V19.3082C71.248 19.3522 70.229 19.4751 69.4472 19.6772C68.6742 19.8792 68.1076 20.1823 67.7474 20.5864C67.3873 20.9904 67.2072 21.5131 67.2072 22.1544C67.2072 22.8483 67.3917 23.3534 67.7606 23.6696C68.1383 23.9771 68.6215 24.1308 69.21 24.1308ZM83.5316 26.0282C82.4336 26.0282 81.4409 25.7296 80.5537 25.1322C79.6665 24.5349 78.9594 23.7311 78.4323 22.7209C77.914 21.7107 77.6549 20.582 77.6549 19.3346C77.6549 18.1487 77.8921 17.0419 78.3664 16.0141C78.8496 14.9864 79.5304 14.1606 80.4088 13.5369C81.2872 12.9045 82.3282 12.5882 83.5316 12.5882C84.3925 12.5882 85.2226 12.7771 86.022 13.1548C86.8301 13.5238 87.4845 14.1431 87.9852 15.0127L87.4846 15.3553V6H89.8563V25.7647H87.7481L87.3001 23.024L87.9062 23.4456C87.5285 24.2977 86.9355 24.9434 86.1274 25.3826C85.3192 25.813 84.454 26.0282 83.5316 26.0282ZM83.9533 23.92C84.5506 23.92 85.1391 23.7663 85.7189 23.4588C86.3074 23.1514 86.7906 22.6638 87.1683 21.9962C87.5548 21.3198 87.7481 20.4326 87.7481 19.3346C87.7481 18.3156 87.5548 17.4635 87.1683 16.7784C86.7906 16.0844 86.3074 15.5661 85.7189 15.2235C85.1391 14.8722 84.5506 14.6965 83.9533 14.6965C83.1451 14.6965 82.4511 14.8985 81.8714 15.3026C81.2916 15.7067 80.848 16.2601 80.5405 16.9628C80.2331 17.6568 80.0794 18.4474 80.0794 19.3346C80.0794 20.1691 80.2331 20.9333 80.5405 21.6273C80.848 22.3213 81.2916 22.8791 81.8714 23.3007C82.4511 23.7136 83.1451 23.92 83.9533 23.92ZM96.3573 26.0282C95.5228 26.0282 94.8596 25.8789 94.3677 25.5802C93.8845 25.2728 93.5376 24.8819 93.3267 24.4075C93.1159 23.9332 93.0105 23.4369 93.0105 22.9186V6H95.3823V21.5482C95.3823 22.2861 95.4306 22.8395 95.5272 23.2085C95.6238 23.5774 95.8171 23.8234 96.107 23.9464C96.4056 24.0693 96.858 24.1308 97.4642 24.1308L97.1216 26.0282H96.3573ZM105.329 26.0282C103.81 26.0282 102.531 25.7164 101.495 25.0927C100.458 24.469 99.6722 23.6433 99.1363 22.6155C98.6092 21.579 98.3457 20.4414 98.3457 19.2028C98.3457 17.9994 98.5917 16.8969 99.0836 15.8955C99.5843 14.8941 100.305 14.0947 101.245 13.4974C102.193 12.8913 103.335 12.5882 104.67 12.5882C105.742 12.5882 106.695 12.8035 107.53 13.2339C108.373 13.6555 109.032 14.2748 109.506 15.0918C109.989 15.8999 110.231 16.8838 110.231 18.0433C110.231 18.2278 110.222 18.4298 110.205 18.6494C110.196 18.8602 110.169 19.0798 110.125 19.3082H100.77C100.884 20.5029 101.17 21.434 101.627 22.1016C102.083 22.7693 102.659 23.2392 103.353 23.5115C104.047 23.7838 104.802 23.92 105.619 23.92C106.216 23.92 106.84 23.8585 107.49 23.7355C108.14 23.6125 108.755 23.4193 109.335 23.1558L109.651 25.0268C109.15 25.2464 108.54 25.4704 107.82 25.6988C107.099 25.9184 106.269 26.0282 105.329 26.0282ZM100.981 17.6744H107.78C107.78 17.0682 107.666 16.5412 107.437 16.0932C107.209 15.6452 106.862 15.3026 106.397 15.0654C105.931 14.8195 105.338 14.6965 104.618 14.6965C103.564 14.6965 102.751 14.96 102.18 15.4871C101.618 16.0053 101.218 16.7344 100.981 17.6744Z" fill="#5664D2"/>
</svg>
