<svg width="20" height="20" viewBox="0 0 20 20" fill="none" xmlns="http://www.w3.org/2000/svg">
<path fill-rule="evenodd" clip-rule="evenodd" d="M5.59027 1.99992C5.61228 1.99997 5.63417 2.00002 5.6559 2.00002H14.3441C14.3658 2.00002 14.3877 1.99997 14.4097 1.99992C14.672 1.99931 14.9522 1.99867 15.2162 2.08296C15.446 2.15636 15.6582 2.2765 15.8394 2.43582C16.0475 2.6188 16.1911 2.8594 16.3255 3.08463C16.3342 3.09911 16.3428 3.11353 16.3514 3.12786L18.5267 6.43643C18.5323 6.44504 18.5378 6.45376 18.5431 6.46259C18.5586 6.48832 18.5743 6.51434 18.5903 6.54066C18.7407 6.78899 18.9074 7.06413 18.9663 7.36779C18.9873 7.47598 18.9976 7.58492 18.9979 7.69322C18.9993 7.71197 19 7.73091 19 7.75002C19 7.79649 18.9958 7.84198 18.9877 7.88612C18.9771 7.98355 18.9585 8.07976 18.9321 8.1737C18.8474 8.47571 18.6597 8.73595 18.4835 8.9803C18.4687 9.00081 18.454 9.0212 18.4394 9.04149C18.4262 9.05986 18.4122 9.07762 18.3974 9.09472L11.8897 16.6248C11.6858 16.9089 11.5049 17.1597 11.3383 17.3511C11.1633 17.5522 10.9463 17.7578 10.6481 17.8767C10.232 18.0426 9.76802 18.0426 9.35187 17.8767C9.0537 17.7578 8.83668 17.5522 8.66168 17.3511C8.49513 17.1597 8.3142 16.9089 8.11032 16.6248L1.60255 9.09472C1.58777 9.07762 1.57377 9.05986 1.5606 9.04149C1.54603 9.02119 1.53131 9.00078 1.51652 8.98027C1.34028 8.73593 1.15258 8.4757 1.06787 8.1737C1.04151 8.07973 1.02285 7.98348 1.0123 7.88602C1.00422 7.84192 1 7.79646 1 7.75002C1 7.73094 1.00071 7.71202 1.00211 7.69329C1.00237 7.58496 1.01273 7.476 1.03372 7.36779C1.09263 7.06412 1.25931 6.78898 1.40974 6.54065C1.42569 6.51433 1.44145 6.48831 1.45688 6.46259C1.46218 6.45376 1.46766 6.44504 1.47332 6.43643L3.64864 3.12786C3.65722 3.11353 3.66583 3.09911 3.67447 3.08463C3.8089 2.8594 3.95251 2.6188 4.1606 2.43582C4.34179 2.2765 4.55397 2.15636 4.78381 2.08296C5.04778 1.99867 5.32798 1.99931 5.59027 1.99992ZM4.82078 4.07547L2.89794 7.00002H8.05317L4.82078 4.07547ZM10.0004 8.50002C10.0001 8.50002 9.99986 8.50002 9.99957 8.50002H3.07115L9.26738 15.6696C9.28216 15.6867 9.29616 15.7045 9.30934 15.7228C9.53602 16.0388 9.67779 16.2338 9.79314 16.3663C9.86553 16.4495 9.90308 16.4785 9.91353 16.4857C9.96934 16.5063 10.0307 16.5063 10.0865 16.4857C10.0969 16.4785 10.1345 16.4495 10.2069 16.3663C10.3222 16.2338 10.464 16.0388 10.6907 15.7228C10.7038 15.7045 10.7178 15.6867 10.7326 15.6696L16.9289 8.50002H10.0004ZM17.1021 7.00002H11.9468L15.1792 4.07547L17.1021 7.00002ZM13.5795 3.50002H6.42051L10 6.73861L13.5795 3.50002ZM10.0834 16.4877C10.0834 16.4877 10.0836 16.4876 10.0841 16.4873L10.0834 16.4877ZM9.91661 16.4877C9.91661 16.4877 9.91639 16.4876 9.91594 16.4873L9.91661 16.4877Z" fill="#4A545E"/>
</svg>
