<svg width="24" height="24" viewBox="0 0 24 24" fill="none" xmlns="http://www.w3.org/2000/svg">
<path fill-rule="evenodd" clip-rule="evenodd" d="M10.3238 4H13.6762C13.9337 3.99998 14.1702 3.99997 14.3679 4.01612C14.581 4.03353 14.8142 4.07339 15.0445 4.19074C15.3738 4.35852 15.6415 4.62624 15.8093 4.95552C15.9266 5.18583 15.9665 5.419 15.9839 5.63213C16 5.82981 16 6.06629 16 6.32377L16 7L18.6762 7C18.9337 6.99998 19.1702 6.99997 19.3679 7.01612C19.581 7.03353 19.8142 7.07339 20.0445 7.19074C20.3738 7.35852 20.6415 7.62624 20.8093 7.95552C20.9266 8.18583 20.9665 8.419 20.9839 8.63213C21 8.82981 21 9.06629 21 9.32377V13.6762C21 13.9337 21 14.1702 20.9839 14.3679C20.9665 14.581 20.9266 14.8142 20.8093 15.0445C20.6415 15.3738 20.3738 15.6415 20.0445 15.8093C20.0297 15.8168 20.0148 15.824 20 15.831V17.6762C20 17.9337 20 18.1702 19.9839 18.3679C19.9665 18.581 19.9266 18.8142 19.8093 19.0445C19.6415 19.3738 19.3738 19.6415 19.0445 19.8093C18.8142 19.9266 18.581 19.9665 18.3679 19.9839C18.1702 20 17.9337 20 17.6762 20H6.32377C6.06629 20 5.82981 20 5.63213 19.9839C5.419 19.9665 5.18583 19.9266 4.95552 19.8093C4.62624 19.6415 4.35852 19.3738 4.19074 19.0445C4.07339 18.8142 4.03353 18.581 4.01612 18.3679C3.99997 18.1702 3.99998 17.9337 4 17.6762L4 15.831C3.98517 15.824 3.97034 15.8168 3.95552 15.8093C3.62624 15.6415 3.35852 15.3738 3.19074 15.0445C3.07339 14.8142 3.03353 14.581 3.01612 14.3679C2.99997 14.1702 2.99998 13.9337 3 13.6762V9.32378C2.99998 9.0663 2.99997 8.82982 3.01612 8.63213C3.03353 8.419 3.07339 8.18583 3.19074 7.95552C3.35852 7.62624 3.62624 7.35852 3.95552 7.19074C4.18583 7.07339 4.419 7.03353 4.63213 7.01612C4.82982 6.99997 5.0663 6.99998 5.32379 7C5.3325 7 5.34124 7 5.35 7H8L8 6.32379C7.99998 6.0663 7.99997 5.82982 8.01612 5.63213C8.03353 5.419 8.07339 5.18583 8.19074 4.95552C8.35852 4.62624 8.62624 4.35852 8.95552 4.19074C9.18583 4.07339 9.419 4.03353 9.63213 4.01612C9.82982 3.99997 10.0663 3.99998 10.3238 4ZM5.35 8.5C5.0576 8.5 4.88341 8.50059 4.75428 8.51114C4.67547 8.51757 4.64234 8.52607 4.63347 8.52883C4.58883 8.55235 4.55235 8.58883 4.52883 8.63347C4.52607 8.64234 4.51757 8.67547 4.51114 8.75428C4.50059 8.88341 4.5 9.0576 4.5 9.35V13.65C4.5 13.9424 4.50059 14.1166 4.51114 14.2457C4.51757 14.3245 4.52607 14.3577 4.52883 14.3665C4.55235 14.4112 4.58883 14.4477 4.63347 14.4712C4.64234 14.4739 4.67547 14.4824 4.75428 14.4889C4.76561 14.4898 4.77729 14.4906 4.78936 14.4914C4.79424 14.4917 4.7991 14.492 4.80395 14.4923C4.92791 14.4996 5.09346 14.5 5.35 14.5H9V13.75C9 13.3358 9.33579 13 9.75 13C10.1642 13 10.5 13.3358 10.5 13.75V14.5H13.5V13.75C13.5 13.3358 13.8358 13 14.25 13C14.6642 13 15 13.3358 15 13.75V14.5H18.65C18.9065 14.5 19.0721 14.4996 19.1961 14.4923C19.2009 14.492 19.2058 14.4917 19.2106 14.4914C19.2227 14.4906 19.2344 14.4898 19.2457 14.4889C19.3245 14.4824 19.3577 14.4739 19.3665 14.4712C19.4112 14.4477 19.4477 14.4112 19.4712 14.3665C19.4739 14.3577 19.4824 14.3245 19.4889 14.2457C19.4994 14.1166 19.5 13.9424 19.5 13.65V9.35C19.5 9.0576 19.4994 8.88341 19.4889 8.75428C19.4824 8.67547 19.4739 8.64234 19.4712 8.63347C19.4477 8.58883 19.4112 8.55235 19.3665 8.52883C19.3577 8.52607 19.3245 8.51758 19.2457 8.51114C19.1166 8.50059 18.9424 8.5 18.65 8.5H5.35ZM14.5 7H9.5V6.35C9.5 6.0576 9.50059 5.88341 9.51114 5.75428C9.51757 5.67547 9.52607 5.64234 9.52883 5.63347C9.55235 5.58883 9.58883 5.55235 9.63346 5.52883C9.64234 5.52607 9.67547 5.51757 9.75428 5.51114C9.88341 5.50059 10.0576 5.5 10.35 5.5H13.65C13.9424 5.5 14.1166 5.50059 14.2457 5.51114C14.3245 5.51757 14.3577 5.52607 14.3665 5.52883C14.4112 5.55235 14.4477 5.58882 14.4712 5.63347C14.4739 5.64234 14.4824 5.67547 14.4889 5.75428C14.4994 5.88341 14.5 6.0576 14.5 6.35V7ZM14.4703 5.63088C14.4703 5.63085 14.4705 5.63132 14.4708 5.63236L14.4703 5.63088ZM14.3691 5.52973C14.3691 5.52974 14.3686 5.52957 14.3676 5.52918L14.3691 5.52973ZM9.63088 5.52973C9.63085 5.52972 9.63132 5.52953 9.63236 5.52918L9.63088 5.52973ZM9.52918 5.63236C9.52953 5.63131 9.52972 5.63085 9.52973 5.63088L9.52918 5.63236ZM19.3691 8.52973C19.3691 8.52974 19.3686 8.52956 19.3676 8.52917L19.3691 8.52973ZM19.4703 8.63088C19.4703 8.63085 19.4705 8.63132 19.4708 8.63236L19.4703 8.63088ZM19.4703 14.3691C19.4703 14.3691 19.4704 14.3686 19.4708 14.3676L19.4703 14.3691ZM19.3691 14.4703C19.3692 14.4703 19.3687 14.4705 19.3676 14.4708L19.3691 14.4703ZM18.5 16H15V16.25C15 16.6642 14.6642 17 14.25 17C13.8358 17 13.5 16.6642 13.5 16.25V16H10.5V16.25C10.5 16.6642 10.1642 17 9.75 17C9.33579 17 9 16.6642 9 16.25V16H5.5V17.65C5.5 17.9424 5.50059 18.1166 5.51114 18.2457C5.51758 18.3245 5.52607 18.3577 5.52883 18.3665C5.55235 18.4112 5.58883 18.4477 5.63347 18.4712C5.64235 18.4739 5.67547 18.4824 5.75428 18.4889C5.88341 18.4994 6.0576 18.5 6.35 18.5H17.65C17.9424 18.5 18.1166 18.4994 18.2457 18.4889C18.3245 18.4824 18.3577 18.4739 18.3665 18.4712C18.4112 18.4477 18.4477 18.4112 18.4712 18.3665C18.4739 18.3577 18.4824 18.3245 18.4889 18.2457C18.4994 18.1166 18.5 17.9424 18.5 17.65V16ZM18.4703 18.3691C18.4703 18.3691 18.4704 18.3686 18.4708 18.3676L18.4703 18.3691ZM18.3691 18.4703C18.3692 18.4703 18.3687 18.4705 18.3676 18.4708L18.3691 18.4703ZM5.63088 18.4703C5.63091 18.4703 5.63143 18.4704 5.63236 18.4708L5.63088 18.4703ZM5.52918 18.3676C5.52957 18.3686 5.52974 18.3691 5.52973 18.3691L5.52918 18.3676ZM4.63088 14.4703C4.63091 14.4703 4.63143 14.4704 4.63236 14.4708L4.63088 14.4703ZM4.52918 14.3676C4.52957 14.3686 4.52974 14.3691 4.52973 14.3691L4.52918 14.3676ZM4.52917 8.63239C4.52952 8.63132 4.52972 8.63085 4.52973 8.63088L4.52917 8.63239ZM4.63239 8.52917C4.63144 8.52956 4.63091 8.52974 4.63088 8.52973L4.63239 8.52917Z" fill="#4A545E"/>
</svg>
