<svg width="16" height="16" viewBox="0 0 16 16" fill="none" xmlns="http://www.w3.org/2000/svg">
<path d="M8.00016 14.1668H4.66683C2.2335 14.1668 0.833496 12.7668 0.833496 10.3335V5.66683C0.833496 3.2335 2.2335 1.8335 4.66683 1.8335H11.3335C13.7668 1.8335 15.1668 3.2335 15.1668 5.66683V7.66683C15.1668 7.94016 14.9402 8.16683 14.6668 8.16683C14.3935 8.16683 14.1668 7.94016 14.1668 7.66683V5.66683C14.1668 3.76016 13.2402 2.8335 11.3335 2.8335H4.66683C2.76016 2.8335 1.8335 3.76016 1.8335 5.66683V10.3335C1.8335 12.2402 2.76016 13.1668 4.66683 13.1668H8.00016C8.2735 13.1668 8.50016 13.3935 8.50016 13.6668C8.50016 13.9402 8.2735 14.1668 8.00016 14.1668Z" fill="#5664D2"/>
<path d="M7.99969 8.57998C7.43969 8.57998 6.87302 8.40664 6.43969 8.0533L4.35302 6.38664C4.13969 6.2133 4.09969 5.89998 4.27302 5.68665C4.44636 5.47331 4.75968 5.43998 4.97302 5.60665L7.05969 7.27332C7.56635 7.67998 8.42635 7.67998 8.93302 7.27332L11.0197 5.60665C11.233 5.43332 11.5463 5.46665 11.7197 5.68665C11.893 5.89998 11.8597 6.21997 11.6397 6.38664L9.55301 8.0533C9.12635 8.40664 8.55969 8.57998 7.99969 8.57998Z" fill="#5664D2"/>
<path d="M10.5465 14.5201C10.2932 14.5201 10.0532 14.4267 9.87988 14.2534C9.67321 14.0467 9.57987 13.7467 9.62654 13.4334L9.75321 12.5334C9.78654 12.3001 9.92655 12.0201 10.0932 11.8534L12.4532 9.4934C12.7732 9.1734 13.0865 9.00673 13.4265 8.9734C13.8399 8.9334 14.2532 9.10673 14.6399 9.4934C15.0265 9.88006 15.1999 10.2867 15.1599 10.7067C15.1265 11.0401 14.9532 11.3601 14.6399 11.6801L12.2799 14.0401C12.1132 14.2067 11.8332 14.3467 11.5999 14.3801L10.6999 14.5067C10.6465 14.5134 10.5999 14.5201 10.5465 14.5201ZM13.5399 9.96675C13.5332 9.96675 13.5265 9.96675 13.5199 9.96675C13.4265 9.97341 13.2999 10.0601 13.1599 10.2001L10.7999 12.5601C10.7799 12.5801 10.7465 12.6467 10.7465 12.6734L10.6265 13.5067L11.4599 13.3867C11.4865 13.3801 11.5532 13.3467 11.5732 13.3267L13.9332 10.9667C14.0732 10.8201 14.1599 10.7001 14.1665 10.6067C14.1799 10.4734 14.0465 10.3134 13.9332 10.2001C13.8265 10.0934 13.6732 9.96675 13.5399 9.96675Z" fill="#5664D2"/>
<path d="M13.9466 12.1666C13.8999 12.1666 13.8532 12.16 13.8132 12.1466C12.9332 11.9 12.2332 11.2 11.9866 10.32C11.9132 10.0533 12.0666 9.77995 12.3332 9.69995C12.5999 9.62661 12.8732 9.77996 12.9466 10.0466C13.0999 10.5933 13.5332 11.0266 14.0799 11.1799C14.3466 11.2533 14.4999 11.5333 14.4266 11.8C14.3666 12.02 14.1666 12.1666 13.9466 12.1666Z" fill="#5664D2"/>
</svg>
