<svg width="55" height="55" viewBox="0 0 55 55" fill="none" xmlns="http://www.w3.org/2000/svg">
<path d="M6.875 34.3757V38.5002C6.875 41.0671 6.875 42.3496 7.37455 43.3301C7.81397 44.1925 8.51462 44.895 9.37703 45.3344C10.3565 45.8335 11.6394 45.8335 14.2013 45.8335H48.1254M6.875 34.3757V11.4585M6.875 34.3757L15.7057 27.0168L15.713 27.0109C17.3105 25.6797 18.1108 25.0128 18.9785 24.7419C20.0037 24.4219 21.1079 24.4725 22.0998 24.884C22.9407 25.2328 23.6781 25.9702 25.1528 27.4449L25.1676 27.4597C26.6652 28.9573 27.416 29.7081 28.2704 30.0562C29.2814 30.4681 30.4071 30.5035 31.4433 30.1598C32.3218 29.8684 33.1242 29.1675 34.7286 27.7636L48.1249 16.0418" stroke="white" stroke-width="2" stroke-linecap="round" stroke-linejoin="round"/>
</svg>
