<svg width="55" height="55" viewBox="0 0 55 55" fill="none" xmlns="http://www.w3.org/2000/svg">
<path d="M21.3999 36.6446C28.6334 36.2429 34.375 30.2504 34.375 22.9165C34.375 15.3226 28.2189 9.1665 20.625 9.1665C13.0311 9.1665 6.875 15.3226 6.875 22.9165C6.875 25.6223 7.65632 28.1454 9.00599 30.2727L8.03426 33.1879L8.03272 33.1921C7.66053 34.3087 7.47435 34.8672 7.60692 35.239C7.72244 35.5629 7.97886 35.8183 8.30282 35.9338C8.67332 36.0659 9.22796 35.8811 10.337 35.5114L10.3528 35.5066L13.2688 34.5348C15.3961 35.8845 17.9194 36.6661 20.6251 36.6661C20.8851 36.6661 21.1435 36.6589 21.3999 36.6446ZM21.3999 36.6446C21.4001 36.6452 21.3997 36.6441 21.3999 36.6446ZM21.3999 36.6446C23.2812 41.9967 28.3802 45.8335 34.3753 45.8335C37.0811 45.8335 39.6038 45.0513 41.7309 43.7015L44.6463 44.6733L44.652 44.6744C45.7684 45.0465 46.3279 45.233 46.6997 45.1005C47.0236 44.985 47.2768 44.7296 47.3923 44.4056C47.5251 44.0333 47.3394 43.4742 46.9662 42.3546L45.9945 39.4393L46.32 38.9C47.4691 36.8909 48.1238 34.5635 48.1238 32.0832C48.1238 24.4893 41.9689 18.3332 34.375 18.3332L33.8603 18.3427L33.6007 18.3553" stroke="white" stroke-width="2" stroke-linecap="round" stroke-linejoin="round"/>
</svg>
