<svg width="55" height="55" viewBox="0 0 55 55" fill="none" xmlns="http://www.w3.org/2000/svg">
<path d="M34.3749 22.9162L25.2082 32.0829L20.6249 27.4996M30.3555 7.9264L33.1536 10.3109C33.8585 10.9116 34.7338 11.2748 35.657 11.3485L39.3215 11.6405C41.4759 11.8124 43.1872 13.5227 43.3592 15.6771L43.6505 19.3422C43.7242 20.2654 44.0887 21.142 44.6894 21.8469L47.0728 24.6442C48.4747 26.2892 48.4749 28.7089 47.0731 30.3539L44.6896 33.1516C44.0889 33.8566 43.7249 34.7334 43.6512 35.6567L43.358 39.3211C43.1861 41.4756 41.4775 43.1869 39.323 43.3588L35.6572 43.6513C34.734 43.725 33.8579 44.0872 33.153 44.688L30.3555 47.0725C28.7105 48.4744 26.2893 48.4747 24.6443 47.0728L21.8468 44.6882C21.1419 44.0874 20.2658 43.7246 19.3425 43.6509L15.6768 43.3588C13.5223 43.1869 11.8137 41.476 11.6417 39.3216L11.3486 35.6569C11.2749 34.7337 10.9109 33.8576 10.3102 33.1526L7.92673 30.3541C6.52486 28.7091 6.5242 26.2901 7.92607 24.645L10.3116 21.8465C10.9124 21.1416 11.2729 20.2655 11.3466 19.3422L11.6397 15.6776C11.8116 13.5231 13.5252 11.8122 15.6797 11.6403L19.3414 11.3482C20.2647 11.2746 21.1412 10.9117 21.8461 10.3109L24.6445 7.9264C26.2895 6.52453 28.7105 6.52453 30.3555 7.9264Z" stroke="white" stroke-width="2" stroke-linecap="round" stroke-linejoin="round"/>
</svg>
