<svg width="45" height="39" viewBox="0 0 45 39" fill="none" xmlns="http://www.w3.org/2000/svg">
<path d="M17.9167 37.8332H11.0417M36.25 30.9582H31.6667M24.7921 12.6248H9.20878C6.64187 12.6248 5.35746 12.6248 4.37703 13.1244C3.51462 13.5638 2.81397 14.2645 2.37455 15.1269C1.875 16.1073 1.875 17.3917 1.875 19.9586V23.6253C1.875 26.1922 1.875 27.4739 2.37455 28.4543C2.81397 29.3167 3.51462 30.0197 4.37703 30.4591C5.3565 30.9582 6.63936 30.9582 9.20125 30.9582H24.7918M24.7921 12.6248L24.7917 30.5003C24.7917 30.6577 24.7917 30.8102 24.7918 30.9582M24.7921 12.6248L24.7917 8.50028C24.7917 5.93338 24.7917 4.64897 25.2912 3.66854C25.7306 2.80613 26.4313 2.10548 27.2937 1.66606C28.2741 1.1665 29.5585 1.1665 32.1254 1.1665H35.7921C38.359 1.1665 39.6407 1.1665 40.6211 1.66606C41.4835 2.10548 42.1865 2.80613 42.6259 3.66854C43.125 4.64801 43.125 5.93086 43.125 8.49276V30.5069C43.125 33.0688 43.125 34.3498 42.6259 35.3293C42.1865 36.1917 41.4835 36.8947 40.6211 37.3341C39.6416 37.8332 38.3606 37.8332 35.7987 37.8332H32.1179C29.556 37.8332 28.2732 37.8332 27.2937 37.3341C26.4313 36.8947 25.7306 36.1917 25.2912 35.3293C24.8223 34.409 24.7935 33.2232 24.7918 30.9582M33.9628 8.0415V8.04609L33.9583 8.04598V8.0415H33.9628Z" stroke="white" stroke-width="2" stroke-linecap="round" stroke-linejoin="round"/>
</svg>
