<svg width="18" height="4" viewBox="0 0 18 4" fill="none" xmlns="http://www.w3.org/2000/svg">
<path fill-rule="evenodd" clip-rule="evenodd" d="M3.75 2C3.75 2.82843 3.07843 3.5 2.25 3.5C1.42157 3.5 0.75 2.82843 0.75 2C0.75 1.17157 1.42157 0.5 2.25 0.5C3.07843 0.5 3.75 1.17157 3.75 2ZM10.5 2C10.5 2.82843 9.82843 3.5 9 3.5C8.17157 3.5 7.5 2.82843 7.5 2C7.5 1.17157 8.17157 0.5 9 0.5C9.82843 0.5 10.5 1.17157 10.5 2ZM15.75 3.5C16.5784 3.5 17.25 2.82843 17.25 2C17.25 1.17157 16.5784 0.5 15.75 0.5C14.9216 0.5 14.25 1.17157 14.25 2C14.25 2.82843 14.9216 3.5 15.75 3.5Z" fill="#4A545E"/>
</svg>
