<svg width="19" height="17" viewBox="0 0 19 17" fill="none" xmlns="http://www.w3.org/2000/svg">
<path fill-rule="evenodd" clip-rule="evenodd" d="M0.490044 0.241958C0.77063 -0.0627458 1.2451 -0.0822969 1.5498 0.198289L3.88732 2.35079L17.0315 13.6819C17.3452 13.9524 17.3803 14.426 17.1098 14.7397C16.8394 15.0534 16.3658 15.0885 16.0521 14.8181L12.4948 11.7515C12.4248 11.7213 12.3583 11.6798 12.2979 11.627C10.5806 10.1244 8.00286 10.1244 6.28563 11.6269C5.97391 11.8997 5.50008 11.8681 5.22732 11.5564C4.95456 11.2446 4.98615 10.7708 5.29788 10.498C6.4423 9.4967 7.87309 8.99735 9.30312 9.00001L6.81056 6.85125C5.76053 7.16037 4.80788 7.6693 4.04854 8.36534C3.7432 8.64523 3.26877 8.62459 2.98888 8.31925C2.70899 8.0139 2.72963 7.53948 3.03497 7.25959C3.75444 6.6001 4.5958 6.08931 5.50027 5.7217L3.2671 3.79655C2.61684 4.12146 2.03375 4.50361 1.53564 4.93946C1.22391 5.21223 0.750092 5.18064 0.477329 4.86891C0.204565 4.55719 0.236151 4.08337 0.547876 3.8106C1.01312 3.40351 1.52933 3.04335 2.08315 2.72852L0.533712 1.30172C0.229009 1.02113 0.209457 0.546661 0.490044 0.241958ZM17.0479 4.93949C14.6948 2.88054 10.5057 2.0809 6.73819 2.70815C6.3296 2.77618 5.94323 2.50009 5.8752 2.0915C5.80718 1.68292 6.08326 1.29654 6.49185 1.22852C10.5357 0.555255 15.2351 1.3601 18.0356 3.81063C18.3474 4.0834 18.379 4.55722 18.1062 4.86894C17.8334 5.18067 17.3596 5.21225 17.0479 4.93949ZM10.4912 5.79368C10.5739 5.3878 10.97 5.12582 11.3759 5.20853C12.9202 5.52323 14.3919 6.19936 15.5486 7.25959C15.8539 7.53949 15.8745 8.01391 15.5946 8.31925C15.3147 8.62459 14.8403 8.64522 14.535 8.36533C13.6103 7.51775 12.3992 6.94787 11.0764 6.67833C10.6705 6.59562 10.4085 6.19955 10.4912 5.79368ZM9.29176 14.5C9.01562 14.5 8.79176 14.7239 8.79176 15C8.79176 15.2761 9.01562 15.5 9.29176 15.5C9.5679 15.5 9.79176 15.2761 9.79176 15C9.79176 14.7239 9.5679 14.5 9.29176 14.5ZM7.29176 15C7.29176 13.8954 8.18719 13 9.29176 13C10.3963 13 11.2918 13.8954 11.2918 15C11.2918 16.1046 10.3963 17 9.29176 17C8.18719 17 7.29176 16.1046 7.29176 15Z" fill="#4A545E"/>
</svg>
